<svg xmlns="http://www.w3.org/2000/svg" width="1300" height="560" viewBox="0 0 1300 560" font-family="Liberation Sans, DejaVu Sans, Arial, sans-serif"><defs><marker id="arr_475569" markerWidth="10" markerHeight="10" refX="8" refY="3.2" orient="auto" markerUnits="userSpaceOnUse"><path d="M0,0 L8,3.2 L0,6.4 Z" fill="#475569"/></marker></defs><rect x="0" y="0" width="1300" height="560" fill="#ffffff"/><text x="40.0" y="44.0" font-family="Liberation Sans, DejaVu Sans, Arial, sans-serif" font-size="20" font-weight="bold" fill="#1f2937" text-anchor="start">Pipeline de execução do ETL</text><text x="40.0" y="66.0" font-family="Liberation Sans, DejaVu Sans, Arial, sans-serif" font-size="13.5" font-weight="normal" fill="#64748b" text-anchor="start">Sete estágios sequenciais; dentro de Extract e Relatórios, os scripts são independentes entre si</text><rect x="40.0" y="110.0" width="190.0" height="56.0" rx="9" ry="9" fill="#f1f5f9" stroke="#475569" stroke-width="1.8"/><text x="135.0" y="134.0" font-family="Liberation Sans, DejaVu Sans, Arial, sans-serif" font-size="13.5" font-weight="bold" fill="#475569" text-anchor="middle">Staging</text><text x="135.0" y="152.0" font-family="Liberation Sans, DejaVu Sans, Arial, sans-serif" font-size="13.5" font-weight="bold" fill="#475569" text-anchor="middle">DDL + seed</text><rect x="50.0" y="186.0" width="170.0" height="30.0" rx="6" ry="6" fill="#fff" stroke="#475569" stroke-width="1.2"/><text x="135.0" y="204.7" font-family="Liberation Mono, DejaVu Sans Mono, monospace" font-size="10.5" font-weight="normal" fill="#1f2937" text-anchor="middle">01_schema_fontes</text><rect x="50.0" y="222.0" width="170.0" height="30.0" rx="6" ry="6" fill="#fff" stroke="#475569" stroke-width="1.2"/><text x="135.0" y="240.7" font-family="Liberation Mono, DejaVu Sans Mono, monospace" font-size="10.5" font-weight="normal" fill="#1f2937" text-anchor="middle">02_seed_fontes</text><rect x="50.0" y="258.0" width="170.0" height="30.0" rx="6" ry="6" fill="#fff" stroke="#475569" stroke-width="1.2"/><text x="135.0" y="276.7" font-family="Liberation Mono, DejaVu Sans Mono, monospace" font-size="10.5" font-weight="normal" fill="#1f2937" text-anchor="middle">03_schema_staging</text><rect x="50.0" y="294.0" width="170.0" height="30.0" rx="6" ry="6" fill="#fff" stroke="#475569" stroke-width="1.2"/><text x="135.0" y="312.7" font-family="Liberation Mono, DejaVu Sans Mono, monospace" font-size="10.5" font-weight="normal" fill="#1f2937" text-anchor="middle">04_tabelas_de_para</text><line x1="232.0" y1="138.0" x2="244.0" y2="138.0" stroke="#475569" stroke-width="2.6" marker-end="url(#arr_475569)"/><rect x="246.0" y="110.0" width="190.0" height="56.0" rx="9" ry="9" fill="#dbeafe" stroke="#1d4ed8" stroke-width="1.8"/><text x="341.0" y="134.0" font-family="Liberation Sans, DejaVu Sans, Arial, sans-serif" font-size="13.5" font-weight="bold" fill="#1d4ed8" text-anchor="middle">DW</text><text x="341.0" y="152.0" font-family="Liberation Sans, DejaVu Sans, Arial, sans-serif" font-size="13.5" font-weight="bold" fill="#1d4ed8" text-anchor="middle">DDL</text><rect x="256.0" y="186.0" width="170.0" height="30.0" rx="6" ry="6" fill="#fff" stroke="#1d4ed8" stroke-width="1.2"/><text x="341.0" y="204.7" font-family="Liberation Mono, DejaVu Sans Mono, monospace" font-size="10.5" font-weight="normal" fill="#1f2937" text-anchor="middle">dw/01_schema_dw</text><rect x="256.0" y="222.0" width="170.0" height="30.0" rx="6" ry="6" fill="#fff" stroke="#1d4ed8" stroke-width="1.2"/><text x="341.0" y="240.7" font-family="Liberation Mono, DejaVu Sans Mono, monospace" font-size="10.5" font-weight="normal" fill="#1f2937" text-anchor="middle">dw/02_dim_tempo_carga</text><line x1="438.0" y1="138.0" x2="450.0" y2="138.0" stroke="#475569" stroke-width="2.6" marker-end="url(#arr_475569)"/><rect x="452.0" y="110.0" width="190.0" height="56.0" rx="9" ry="9" fill="#e2e8f0" stroke="#334155" stroke-width="1.8"/><text x="547.0" y="134.0" font-family="Liberation Sans, DejaVu Sans, Arial, sans-serif" font-size="13.5" font-weight="bold" fill="#334155" text-anchor="middle">Extract</text><text x="547.0" y="152.0" font-family="Liberation Sans, DejaVu Sans, Arial, sans-serif" font-size="13.5" font-weight="bold" fill="#334155" text-anchor="middle">(5 fontes)</text><rect x="462.0" y="186.0" width="170.0" height="30.0" rx="6" ry="6" fill="#fff" stroke="#334155" stroke-width="1.2"/><text x="547.0" y="204.7" font-family="Liberation Mono, DejaVu Sans Mono, monospace" font-size="10.5" font-weight="normal" fill="#1f2937" text-anchor="middle">01_andre_gustavo</text><rect x="462.0" y="222.0" width="170.0" height="30.0" rx="6" ry="6" fill="#fff" stroke="#334155" stroke-width="1.2"/><text x="547.0" y="240.7" font-family="Liberation Mono, DejaVu Sans Mono, monospace" font-size="10.5" font-weight="normal" fill="#1f2937" text-anchor="middle">02_mae016</text><rect x="462.0" y="258.0" width="170.0" height="30.0" rx="6" ry="6" fill="#fff" stroke="#334155" stroke-width="1.2"/><text x="547.0" y="276.7" font-family="Liberation Mono, DejaVu Sans Mono, monospace" font-size="10.5" font-weight="normal" fill="#1f2937" text-anchor="middle">03_locadora_db</text><rect x="462.0" y="294.0" width="170.0" height="30.0" rx="6" ry="6" fill="#fff" stroke="#334155" stroke-width="1.2"/><text x="547.0" y="312.7" font-family="Liberation Mono, DejaVu Sans Mono, monospace" font-size="10.5" font-weight="normal" fill="#1f2937" text-anchor="middle">04_bd_dw</text><rect x="462.0" y="330.0" width="170.0" height="30.0" rx="6" ry="6" fill="#fff" stroke="#334155" stroke-width="1.2"/><text x="547.0" y="348.7" font-family="Liberation Mono, DejaVu Sans Mono, monospace" font-size="10.5" font-weight="normal" fill="#1f2937" text-anchor="middle">05_bigdata</text><line x1="644.0" y1="138.0" x2="656.0" y2="138.0" stroke="#475569" stroke-width="2.6" marker-end="url(#arr_475569)"/><rect x="658.0" y="110.0" width="190.0" height="56.0" rx="9" ry="9" fill="#fff7ed" stroke="#ea580c" stroke-width="1.8"/><text x="753.0" y="134.0" font-family="Liberation Sans, DejaVu Sans, Arial, sans-serif" font-size="13.5" font-weight="bold" fill="#ea580c" text-anchor="middle">Transform</text><rect x="668.0" y="186.0" width="170.0" height="30.0" rx="6" ry="6" fill="#fff" stroke="#ea580c" stroke-width="1.2"/><text x="753.0" y="204.7" font-family="Liberation Mono, DejaVu Sans Mono, monospace" font-size="10.5" font-weight="normal" fill="#1f2937" text-anchor="middle">06_transform</text><line x1="850.0" y1="138.0" x2="862.0" y2="138.0" stroke="#475569" stroke-width="2.6" marker-end="url(#arr_475569)"/><rect x="864.0" y="110.0" width="190.0" height="56.0" rx="9" ry="9" fill="#dcfce7" stroke="#15803d" stroke-width="1.8"/><text x="959.0" y="134.0" font-family="Liberation Sans, DejaVu Sans, Arial, sans-serif" font-size="13.5" font-weight="bold" fill="#15803d" text-anchor="middle">Load</text><rect x="874.0" y="186.0" width="170.0" height="30.0" rx="6" ry="6" fill="#fff" stroke="#15803d" stroke-width="1.2"/><text x="959.0" y="204.7" font-family="Liberation Mono, DejaVu Sans Mono, monospace" font-size="10.5" font-weight="normal" fill="#1f2937" text-anchor="middle">07_load_dimensoes</text><rect x="874.0" y="222.0" width="170.0" height="30.0" rx="6" ry="6" fill="#fff" stroke="#15803d" stroke-width="1.2"/><text x="959.0" y="240.7" font-family="Liberation Mono, DejaVu Sans Mono, monospace" font-size="10.5" font-weight="normal" fill="#1f2937" text-anchor="middle">08_load_fatos</text><line x1="1056.0" y1="138.0" x2="1068.0" y2="138.0" stroke="#475569" stroke-width="2.6" marker-end="url(#arr_475569)"/><rect x="1070.0" y="110.0" width="190.0" height="56.0" rx="9" ry="9" fill="#ede9fe" stroke="#7c3aed" stroke-width="1.8"/><text x="1165.0" y="134.0" font-family="Liberation Sans, DejaVu Sans, Arial, sans-serif" font-size="13.5" font-weight="bold" fill="#7c3aed" text-anchor="middle">Relatórios</text><text x="1165.0" y="152.0" font-family="Liberation Sans, DejaVu Sans, Arial, sans-serif" font-size="13.5" font-weight="bold" fill="#7c3aed" text-anchor="middle">+ Markov</text><rect x="1080.0" y="186.0" width="170.0" height="30.0" rx="6" ry="6" fill="#fff" stroke="#7c3aed" stroke-width="1.2"/><text x="1165.0" y="204.7" font-family="Liberation Mono, DejaVu Sans Mono, monospace" font-size="10.5" font-weight="normal" fill="#1f2937" text-anchor="middle">01_controle_patio</text><rect x="1080.0" y="222.0" width="170.0" height="30.0" rx="6" ry="6" fill="#fff" stroke="#7c3aed" stroke-width="1.2"/><text x="1165.0" y="240.7" font-family="Liberation Mono, DejaVu Sans Mono, monospace" font-size="10.5" font-weight="normal" fill="#1f2937" text-anchor="middle">02_controle_locacoes</text><rect x="1080.0" y="258.0" width="170.0" height="30.0" rx="6" ry="6" fill="#fff" stroke="#7c3aed" stroke-width="1.2"/><text x="1165.0" y="276.7" font-family="Liberation Mono, DejaVu Sans Mono, monospace" font-size="10.5" font-weight="normal" fill="#1f2937" text-anchor="middle">03_controle_reservas</text><rect x="1080.0" y="294.0" width="170.0" height="30.0" rx="6" ry="6" fill="#fff" stroke="#7c3aed" stroke-width="1.2"/><text x="1165.0" y="312.7" font-family="Liberation Mono, DejaVu Sans Mono, monospace" font-size="10.5" font-weight="normal" fill="#1f2937" text-anchor="middle">04_grupos</text><rect x="1080.0" y="330.0" width="170.0" height="30.0" rx="6" ry="6" fill="#fff" stroke="#7c3aed" stroke-width="1.2"/><text x="1165.0" y="348.7" font-family="Liberation Mono, DejaVu Sans Mono, monospace" font-size="10.5" font-weight="normal" fill="#1f2937" text-anchor="middle">05_matriz_markov</text><rect x="40.0" y="500.0" width="1220.0" height="44.0" rx="8" ry="8" fill="#f8fafc" stroke="#94a3b8" stroke-width="1"/><text x="60.0" y="528.0" font-family="Liberation Sans, DejaVu Sans, Arial, sans-serif" font-size="12" font-weight="normal" fill="#1f2937" text-anchor="start">Idempotente: re-executar o pipeline completo produz resultado bit-a-bit idêntico (TRUNCATE … RESTART IDENTITY · ON CONFLICT DO UPDATE · DELETE WHERE sk_fonte = N).</text></svg>